name C:\Users\r0593348\3dpredictsim\Results\MidTarsalJoint\Fal_s1_bCst_PF_Natali2010_ls150_MT_k300_d020_MTP_T5_ig21.mot
datacolumns 128
datarows 4
range 0.00000000 0.03398112
endheader
time	pelvis_tilt	pelvis_list	pelvis_rotation	pelvis_tx	pelvis_ty	pelvis_tz	hip_flexion_l	hip_adduction_l	hip_rotation_l	hip_flexion_r	hip_adduction_r	hip_rotation_r	knee_angle_l	knee_angle_r	ankle_angle_l	ankle_angle_r	subtalar_angle_l	subtalar_angle_r	mtj_angle_l	mtj_angle_r	mtp_angle_l	mtp_angle_r	lumbar_extension	lumbar_bending	lumbar_rotation	arm_flex_l	arm_add_l	arm_rot_l	arm_flex_r	arm_add_r	arm_rot_r	elbow_flex_l	elbow_flex_r	pro_sup_l	pro_sup_r	glut_med1_l/activation	glut_med2_l/activation	glut_med3_l/activation	glut_min1_l/activation	glut_min2_l/activation	glut_min3_l/activation	semimem_l/activation	semiten_l/activation	bifemlh_l/activation	bifemsh_l/activation	sar_l/activation	add_long_l/activation	add_brev_l/activation	add_mag1_l/activation	add_mag2_l/activation	add_mag3_l/activation	tfl_l/activation	pect_l/activation	grac_l/activation	glut_max1_l/activation	glut_max2_l/activation	glut_max3_l/activation	iliacus_l/activation	psoas_l/activation	quad_fem_l/activation	gem_l/activation	peri_l/activation	rect_fem_l/activation	vas_med_l/activation	vas_int_l/activation	vas_lat_l/activation	med_gas_l/activation	lat_gas_l/activation	soleus_l/activation	tib_post_l/activation	flex_dig_l/activation	flex_hal_l/activation	tib_ant_l/activation	per_brev_l/activation	per_long_l/activation	per_tert_l/activation	ext_dig_l/activation	ext_hal_l/activation	ercspn_l/activation	intobl_l/activation	extobl_l/activation	glut_med1_r/activation	glut_med2_r/activation	glut_med3_r/activation	glut_min1_r/activation	glut_min2_r/activation	glut_min3_r/activation	semimem_r/activation	semiten_r/activation	bifemlh_r/activation	bifemsh_r/activation	sar_r/activation	add_long_r/activation	add_brev_r/activation	add_mag1_r/activation	add_mag2_r/activation	add_mag3_r/activation	tfl_r/activation	pect_r/activation	grac_r/activation	glut_max1_r/activation	glut_max2_r/activation	glut_max3_r/activation	iliacus_r/activation	psoas_r/activation	quad_fem_r/activation	gem_r/activation	peri_r/activation	rect_fem_r/activation	vas_med_r/activation	vas_int_r/activation	vas_lat_r/activation	med_gas_r/activation	lat_gas_r/activation	soleus_r/activation	tib_post_r/activation	flex_dig_r/activation	flex_hal_r/activation	tib_ant_r/activation	per_brev_r/activation	per_long_r/activation	per_tert_r/activation	ext_dig_r/activation	ext_hal_r/activation	ercspn_r/activation	intobl_r/activation	extobl_r/activation	
          0.00000000	         -2.93017648	         -2.22766354	          5.39017790	          0.00000000	          0.91895009	         -0.00146836	        -16.81670611	         -1.29323119	          6.54118405	         29.34481743	          3.53927939	         -2.04782404	         -8.25152020	        -11.59161632	         -2.15324878	          5.47202355	          8.90753457	         -4.51914869	          4.86348388	         -0.02851127	         11.77105328	         -0.85417349	         -1.98511071	          0.36753436	         -2.06287633	          5.27659979	        -13.45661155	         17.30000043	         -4.70580884	        -13.45490669	          7.47066653	         33.44306400	         15.81101160	         86.51662706	         86.51662706	          0.26036592	          0.09985868	          0.07672891	          0.28955022	          0.19578717	          0.10816466	          0.05000083	          0.05000022	          0.05000015	          0.05895021	          0.10491770	          0.08582766	          0.05002236	          0.05000120	          0.05000178	          0.05000058	          0.30190372	          0.08783388	          0.05000245	          0.05000267	          0.05000205	          0.05000167	          0.40087823	          0.61632704	          0.05000098	          0.05000064	          0.05000143	          0.23444346	          0.05000343	          0.05000249	          0.05000207	          0.28480095	          0.38777135	          0.33620260	          0.27643073	          0.25902679	          0.34331271	          0.05000004	          0.05879039	          0.12408009	          0.05000025	          0.05000006	          0.05000024	          0.05000002	          0.05000010	          0.05000019	          0.05943901	          0.05943904	          0.05000016	          0.05943922	          0.05943919	          0.05000578	          0.11097467	          0.05943938	          0.21638965	          0.05000027	          0.05000043	          0.13523947	          0.30433609	          0.12437161	          0.14758982	          0.10356905	          0.05000011	          0.08398420	          0.10451478	          0.05000059	          0.10080904	          0.15002301	          0.05002035	          0.05000020	          0.16996923	          0.26716874	          0.13692371	          0.05064740	          0.13497254	          0.13298658	          0.11947885	          0.05060161	          0.05000049	          0.05452426	          0.05000002	          0.05000040	          0.05000018	          0.53753217	          0.25926013	          0.16660698	          0.25179269	          0.46519782	          0.22121105	          0.05943900	          0.11400838	          0.10200581	
          0.01132704	         -2.92758554	         -2.30814746	          5.67059922	          0.01709259	          0.91797915	         -0.00127349	        -16.72843698	         -1.58872760	          6.34189076	         28.67522512	          3.87137304	         -1.80945114	        -10.09097970	        -11.74571764	         -2.72039424	          4.81945069	          9.86409543	         -4.89921283	          4.07363101	         -0.00035412	         13.38155173	         -0.85447342	         -1.78425586	          0.56226400	         -2.13023647	          4.98425944	        -13.46626542	         17.58056778	         -5.60210404	        -13.45318753	          7.21030377	         34.61962366	         15.45703905	         86.51662706	         86.51662706	          0.21901876	          0.08400072	          0.06454408	          0.24356858	          0.16469540	          0.09098770	          0.05000216	          0.05000051	          0.05000060	          0.05000021	          0.08825658	          0.16957351	          0.05204479	          0.05944054	          0.05943800	          0.05943901	          0.25396026	          0.08404781	          0.05000402	          0.05000279	          0.05000199	          0.05000248	          0.33721718	          0.57586089	          0.05000158	          0.05943978	          0.05943947	          0.19721291	          0.10720104	          0.14237645	          0.15305962	          0.23957334	          0.32619164	          0.28655364	          0.23415269	          0.21789270	          0.28879379	          0.05000003	          0.05000011	          0.13624472	          0.05000011	          0.05000003	          0.05000016	          0.05579944	          0.05943987	          0.05943910	          0.05000001	          0.05000005	          0.10196319	          0.05000005	          0.05000006	          0.05000009	          0.09335150	          0.05000031	          0.18202609	          0.05000014	          0.05000321	          0.11376314	          0.25601118	          0.30673664	          0.20659921	          0.11539989	          0.05000063	          0.07065729	          0.12807917	          0.05000500	          0.10131403	          0.12619891	          0.05000012	          0.05058341	          0.41124370	          0.22474123	          0.11517969	          0.05944104	          0.14806827	          0.14911413	          0.12773693	          0.05000025	          0.05000148	          0.05000003	          0.05952203	          0.05000516	          0.05943984	          0.45701742	          0.27109549	          0.19810853	          0.21180709	          0.43249271	          0.18608187	          0.05000000	          0.09590337	          0.08580686	
          0.02265408	         -2.92114354	         -2.39102782	          5.91938130	          0.03447564	          0.91707140	         -0.00109478	        -16.57412730	         -1.88299604	          6.13649829	         27.88720570	          4.12304001	         -1.54771721	        -12.02566679	        -12.20758142	         -3.42719172	          4.29502899	         10.77665001	         -5.29497813	          3.13311106	         -0.18725987	         15.06288156	         -0.88259385	         -1.56343788	          0.76831936	         -2.18630082	          4.61125075	        -13.47365738	         17.77954331	         -6.52383719	        -13.45782402	          7.00075274	         35.78393057	         15.15541884	         86.51662706	         86.51662706	          0.32465407	          0.07066107	          0.05429428	          0.31477945	          0.13854117	          0.07653852	          0.05000153	          0.05000022	          0.05000018	          0.05000027	          0.07424145	          0.14264461	          0.05000074	          0.05000141	          0.05000111	          0.05000067	          0.22462780	          0.07070184	          0.05000103	          0.05000298	          0.05000181	          0.05000102	          0.28366580	          0.54535039	          0.05000032	          0.05000124	          0.05000043	          0.16589469	          0.09017731	          0.11976671	          0.12875331	          0.20152807	          0.27439102	          0.24104769	          0.19696830	          0.18329055	          0.24293223	          0.05000002	          0.09014309	          0.15718653	          0.05000016	          0.05000008	          0.05000019	          0.05000018	          0.05000057	          0.05000005	          0.23304898	          0.23630913	          0.29271711	          0.33964322	          0.21943569	          0.20258358	          0.08897953	          0.05299591	          0.15312068	          0.08398370	          0.05000231	          0.09569711	          0.21535557	          0.25802564	          0.17379053	          0.11157753	          0.05000046	          0.05943883	          0.10774043	          0.05000143	          0.12838208	          0.10615814	          0.05134750	          0.05000047	          0.34593650	          0.18905149	          0.22090174	          0.05000158	          0.12455447	          0.12543425	          0.10745182	          0.05000065	          0.05000205	          0.05082550	          0.05006973	          0.05000042	          0.05000089	          0.54762296	          0.33258658	          0.17604728	          0.32844064	          0.50590964	          0.19670175	          0.06000765	          0.11774764	          0.07218037	
          0.03398112	         -2.91320472	         -2.46628619	          6.13149009	          0.05192892	          0.91625998	         -0.00089528	        -16.31556637	         -2.16477918	          5.94123290	         27.05450617	          4.35463254	         -1.28675418	        -14.09681158	        -12.63649220	         -4.29366376	          3.79437078	         11.64723813	         -5.69497970	          2.10249306	         -0.17237174	         16.71388352	         -0.84312986	         -1.34659755	          0.97549555	         -2.23374453	          4.19473638	        -13.48651075	         17.92409878	         -7.42321295	        -13.46300494	          6.84184475	         36.91574992	         14.88468244	         86.51662706	         86.51662706	          0.29894339	          0.05943982	          0.05000011	          0.26479191	          0.11654032	          0.06438392	          0.05000217	          0.05000023	          0.05000020	          0.05000019	          0.06245183	          0.14146003	          0.05000174	          0.05000156	          0.05000229	          0.05000128	          0.18895641	          0.05947469	          0.05000106	          0.05000207	          0.05000134	          0.05000093	          0.23861850	          0.50028439	          0.05000021	          0.05000075	          0.05000019	          0.13954992	          0.11732512	          0.11739770	          0.11868267	          0.16952455	          0.23081656	          0.20276829	          0.16568892	          0.15418333	          0.20435363	          0.06831815	          0.11505120	          0.15788337	          0.05000039	          0.11875124	          0.05000056	          0.07767359	          0.05000001	          0.05000004	          0.32782860	          0.32938879	          0.35870080	          0.28570665	          0.18458918	          0.19495708	          0.07723388	          0.08575849	          0.12880461	          0.07064717	          0.05000059	          0.08050004	          0.18115626	          0.21705039	          0.15710855	          0.15581032	          0.05000029	          0.05000177	          0.09065436	          0.20615877	          0.18105680	          0.15200258	          0.05000007	          0.05000009	          0.29100037	          0.15902938	          0.18582202	          0.05000005	          0.13488387	          0.15219611	          0.10798915	          0.05000002	          0.05000005	          0.05000000	          0.05000001	          0.05000011	          0.05000009	          0.60362151	          0.29277591	          0.16158036	          0.56464282	          0.54176593	          0.29522045	          0.08073225	          0.09904883	          0.06071782	
